<svg width="143" height="20" viewBox="0 0 143 20" fill="none" xmlns="http://www.w3.org/2000/svg">
<path d="M7.4 12.125C5.56667 12.125 4 11.5833 2.7 10.5C1.4 9.4 0.75 8.05833 0.75 6.475C0.75 4.975 1.38333 3.65833 2.65 2.525C3.91667 1.39167 5.5 0.824999 7.4 0.824999C9.2 0.824999 10.75 1.36667 12.05 2.45C13.3667 3.51667 14.025 4.85833 14.025 6.475C14.025 8.10833 13.3583 9.45833 12.025 10.525C10.7083 11.5917 9.16667 12.125 7.4 12.125ZM7.4 11.675C9.18333 11.675 10.65 11.1583 11.8 10.125C12.9667 9.075 13.55 7.85833 13.55 6.475C13.55 5.00833 12.9417 3.775 11.725 2.775C10.5083 1.775 9.06667 1.275 7.4 1.275C5.66667 1.275 4.2 1.78333 3 2.8C1.8 3.8 1.2 5.025 1.2 6.475C1.2 7.85833 1.775 9.075 2.925 10.125C4.075 11.1583 5.56667 11.675 7.4 11.675ZM10.25 8.175C9.71667 9.09167 8.86667 9.55 7.7 9.55C6.73333 9.55 5.94167 9.26667 5.325 8.7C4.70833 8.13333 4.4 7.39167 4.4 6.475C4.4 5.54167 4.69167 4.78333 5.275 4.2C5.875 3.61667 6.625 3.325 7.525 3.325C8.175 3.325 8.775 3.48333 9.325 3.8C9.44167 3.88333 9.50833 3.98333 9.525 4.1L9.575 4.075L9.55 3.975C9.51667 3.90833 9.5 3.84167 9.5 3.775L9.45 3.25L9.7 3.225L9.825 5.225H9.45V5.2C9.38333 4.7 9.16667 4.325 8.8 4.075C8.45 3.80833 8.025 3.675 7.525 3.675C6.15833 3.675 5.475 4.55833 5.475 6.325C5.475 8.25833 6.24167 9.225 7.775 9.225C8.70833 9.225 9.425 8.83333 9.925 8.05L10.25 8.175ZM33.8953 19H23.0203V17.5C23.2036 17.4833 23.5453 17.3167 24.0453 17C24.5453 16.6667 24.987 16.2667 25.3703 15.8C27.3203 13.4667 28.8203 11.4333 29.8703 9.7C30.937 7.95 31.4703 6.4 31.4703 5.05C31.4703 3.81667 31.1786 2.88333 30.5953 2.25C30.012 1.6 29.162 1.275 28.0453 1.275C26.9453 1.275 26.0786 1.6 25.4453 2.25C24.812 2.9 24.4203 3.69167 24.2703 4.625V5.475H23.7953V1.075H24.0453V2.15C25.1453 1.26667 26.4786 0.824999 28.0453 0.824999C29.662 0.824999 30.962 1.24167 31.9453 2.075C32.9286 2.89167 33.4203 3.98333 33.4203 5.35C33.4203 6.18333 33.1953 7.075 32.7453 8.025C32.2953 8.975 31.6536 9.95 30.8203 10.95C29.987 11.9333 29.1286 12.8583 28.2453 13.725C27.3786 14.5917 26.3536 15.5333 25.1703 16.55C24.587 17.0667 24.2036 17.3667 24.0203 17.45L24.0953 17.575C24.762 17.4917 25.2953 17.45 25.6953 17.45H29.7453C31.1786 17.45 32.1953 17.3 32.7953 17C33.412 16.7 33.762 16.0167 33.8453 14.95L33.8953 14.225L34.1953 14.25L33.8953 19ZM42.165 1.275H42.14C40.69 1.275 39.5817 1.95 38.815 3.3C38.065 4.63333 37.69 6.575 37.69 9.125C37.69 12.2583 38.0817 14.65 38.865 16.3C39.6484 17.9333 40.7984 18.75 42.315 18.75C43.7817 18.75 44.8984 18.0833 45.665 16.75C46.4317 15.4 46.815 13.45 46.815 10.9C46.815 7.76667 46.415 5.38333 45.615 3.75C44.8317 2.1 43.6817 1.275 42.165 1.275ZM42.24 0.824999C44.24 0.824999 45.84 1.66667 47.04 3.35C48.2567 5.03333 48.865 7.25 48.865 10C48.865 12.7667 48.2567 14.9917 47.04 16.675C45.84 18.3583 44.24 19.2 42.24 19.2C40.2567 19.2 38.6567 18.3583 37.44 16.675C36.2234 14.9917 35.615 12.7667 35.615 10C35.615 7.25 36.2234 5.03333 37.44 3.35C38.6567 1.66667 40.2567 0.824999 42.24 0.824999ZM57.082 1.275H57.057C55.607 1.275 54.4987 1.95 53.732 3.3C52.982 4.63333 52.607 6.575 52.607 9.125C52.607 12.2583 52.9987 14.65 53.782 16.3C54.5654 17.9333 55.7154 18.75 57.232 18.75C58.6987 18.75 59.8154 18.0833 60.582 16.75C61.3487 15.4 61.732 13.45 61.732 10.9C61.732 7.76667 61.332 5.38333 60.532 3.75C59.7487 2.1 58.5987 1.275 57.082 1.275ZM57.157 0.824999C59.157 0.824999 60.757 1.66667 61.957 3.35C63.1737 5.03333 63.782 7.25 63.782 10C63.782 12.7667 63.1737 14.9917 61.957 16.675C60.757 18.3583 59.157 19.2 57.157 19.2C55.1737 19.2 53.5737 18.3583 52.357 16.675C51.1404 14.9917 50.532 12.7667 50.532 10C50.532 7.25 51.1404 5.03333 52.357 3.35C53.5737 1.66667 55.1737 0.824999 57.157 0.824999ZM76.449 19H65.574V17.5C65.7574 17.4833 66.099 17.3167 66.599 17C67.099 16.6667 67.5407 16.2667 67.924 15.8C69.874 13.4667 71.374 11.4333 72.424 9.7C73.4907 7.95 74.024 6.4 74.024 5.05C74.024 3.81667 73.7324 2.88333 73.149 2.25C72.5657 1.6 71.7157 1.275 70.599 1.275C69.499 1.275 68.6324 1.6 67.999 2.25C67.3657 2.9 66.974 3.69167 66.824 4.625V5.475H66.349V1.075H66.599V2.15C67.699 1.26667 69.0324 0.824999 70.599 0.824999C72.2157 0.824999 73.5157 1.24167 74.499 2.075C75.4824 2.89167 75.974 3.98333 75.974 5.35C75.974 6.18333 75.749 7.075 75.299 8.025C74.849 8.975 74.2074 9.95 73.374 10.95C72.5407 11.9333 71.6824 12.8583 70.799 13.725C69.9324 14.5917 68.9074 15.5333 67.724 16.55C67.1407 17.0667 66.7574 17.3667 66.574 17.45L66.649 17.575C67.3157 17.4917 67.849 17.45 68.249 17.45H72.299C73.7324 17.45 74.749 17.3 75.349 17C75.9657 16.7 76.3157 16.0167 76.399 14.95L76.449 14.225L76.749 14.25L76.449 19ZM89.3688 12.125H77.8438V11.45H89.3688V12.125ZM101.644 19H90.7693V17.5C90.9527 17.4833 91.2943 17.3167 91.7943 17C92.2943 16.6667 92.736 16.2667 93.1193 15.8C95.0693 13.4667 96.5693 11.4333 97.6193 9.7C98.686 7.95 99.2193 6.4 99.2193 5.05C99.2193 3.81667 98.9277 2.88333 98.3443 2.25C97.761 1.6 96.911 1.275 95.7943 1.275C94.6943 1.275 93.8277 1.6 93.1943 2.25C92.561 2.9 92.1693 3.69167 92.0193 4.625V5.475H91.5443V1.075H91.7943V2.15C92.8943 1.26667 94.2277 0.824999 95.7943 0.824999C97.411 0.824999 98.711 1.24167 99.6943 2.075C100.678 2.89167 101.169 3.98333 101.169 5.35C101.169 6.18333 100.944 7.075 100.494 8.025C100.044 8.975 99.4027 9.95 98.5693 10.95C97.736 11.9333 96.8777 12.8583 95.9943 13.725C95.1277 14.5917 94.1027 15.5333 92.9193 16.55C92.336 17.0667 91.9527 17.3667 91.7693 17.45L91.8443 17.575C92.511 17.4917 93.0443 17.45 93.4443 17.45H97.4943C98.9277 17.45 99.9443 17.3 100.544 17C101.161 16.7 101.511 16.0167 101.594 14.95L101.644 14.225L101.944 14.25L101.644 19ZM109.914 1.275H109.889C108.439 1.275 107.331 1.95 106.564 3.3C105.814 4.63333 105.439 6.575 105.439 9.125C105.439 12.2583 105.831 14.65 106.614 16.3C107.397 17.9333 108.547 18.75 110.064 18.75C111.531 18.75 112.647 18.0833 113.414 16.75C114.181 15.4 114.564 13.45 114.564 10.9C114.564 7.76667 114.164 5.38333 113.364 3.75C112.581 2.1 111.431 1.275 109.914 1.275ZM109.989 0.824999C111.989 0.824999 113.589 1.66667 114.789 3.35C116.006 5.03333 116.614 7.25 116.614 10C116.614 12.7667 116.006 14.9917 114.789 16.675C113.589 18.3583 111.989 19.2 109.989 19.2C108.006 19.2 106.406 18.3583 105.189 16.675C103.972 14.9917 103.364 12.7667 103.364 10C103.364 7.25 103.972 5.03333 105.189 3.35C106.406 1.66667 108.006 0.824999 109.989 0.824999ZM129.281 19H118.406V17.5C118.589 17.4833 118.931 17.3167 119.431 17C119.931 16.6667 120.373 16.2667 120.756 15.8C122.706 13.4667 124.206 11.4333 125.256 9.7C126.323 7.95 126.856 6.4 126.856 5.05C126.856 3.81667 126.564 2.88333 125.981 2.25C125.398 1.6 124.548 1.275 123.431 1.275C122.331 1.275 121.464 1.6 120.831 2.25C120.198 2.9 119.806 3.69167 119.656 4.625V5.475H119.181V1.075H119.431V2.15C120.531 1.26667 121.864 0.824999 123.431 0.824999C125.048 0.824999 126.348 1.24167 127.331 2.075C128.314 2.89167 128.806 3.98333 128.806 5.35C128.806 6.18333 128.581 7.075 128.131 8.025C127.681 8.975 127.039 9.95 126.206 10.95C125.373 11.9333 124.514 12.8583 123.631 13.725C122.764 14.5917 121.739 15.5333 120.556 16.55C119.973 17.0667 119.589 17.3667 119.406 17.45L119.481 17.575C120.148 17.4917 120.681 17.45 121.081 17.45H125.131C126.564 17.45 127.581 17.3 128.181 17C128.798 16.7 129.148 16.0167 129.231 14.95L129.281 14.225L129.581 14.25L129.281 19ZM142.001 19H131.126V17.5C131.309 17.4833 131.651 17.3167 132.151 17C132.651 16.6667 133.092 16.2667 133.476 15.8C135.426 13.4667 136.926 11.4333 137.976 9.7C139.042 7.95 139.576 6.4 139.576 5.05C139.576 3.81667 139.284 2.88333 138.701 2.25C138.117 1.6 137.267 1.275 136.151 1.275C135.051 1.275 134.184 1.6 133.551 2.25C132.917 2.9 132.526 3.69167 132.376 4.625V5.475H131.901V1.075H132.151V2.15C133.251 1.26667 134.584 0.824999 136.151 0.824999C137.767 0.824999 139.067 1.24167 140.051 2.075C141.034 2.89167 141.526 3.98333 141.526 5.35C141.526 6.18333 141.301 7.075 140.851 8.025C140.401 8.975 139.759 9.95 138.926 10.95C138.092 11.9333 137.234 12.8583 136.351 13.725C135.484 14.5917 134.459 15.5333 133.276 16.55C132.692 17.0667 132.309 17.3667 132.126 17.45L132.201 17.575C132.867 17.4917 133.401 17.45 133.801 17.45H137.851C139.284 17.45 140.301 17.3 140.901 17C141.517 16.7 141.867 16.0167 141.951 14.95L142.001 14.225L142.301 14.25L142.001 19Z" fill="white"/>
</svg>
