<svg width="39" height="38" viewBox="0 0 39 38" fill="none" xmlns="http://www.w3.org/2000/svg">
<path d="M28.3325 1.60303H10.7775C5.92982 1.60303 2 5.53284 2 10.3805V27.9355C2 32.7832 5.92982 36.713 10.7775 36.713H28.3325C33.1801 36.713 37.11 32.7832 37.11 27.9355V10.3805C37.11 5.53284 33.1801 1.60303 28.3325 1.60303Z" stroke="white" stroke-width="2.34066" stroke-linecap="round" stroke-linejoin="round"/>
<path d="M26.5769 18.0511C26.7936 19.5121 26.544 21.0042 25.8638 22.3152C25.1835 23.6262 24.1072 24.6893 22.7879 25.3534C21.4686 26.0174 19.9735 26.2485 18.5153 26.0139C17.0571 25.7792 15.71 25.0908 14.6656 24.0464C13.6212 23.002 12.9327 21.6549 12.6981 20.1967C12.4634 18.7384 12.6946 17.2434 13.3586 15.9241C14.0226 14.6048 15.0858 13.5285 16.3968 12.8482C17.7078 12.1679 19.1999 11.9184 20.6609 12.135C22.1512 12.356 23.5309 13.0505 24.5962 14.1158C25.6615 15.1811 26.3559 16.5608 26.5769 18.0511Z" stroke="white" stroke-width="2.34066" stroke-linecap="round" stroke-linejoin="round"/>
<path d="M29.2102 9.50195H29.228" stroke="white" stroke-width="2.34066" stroke-linecap="round" stroke-linejoin="round"/>
</svg>
