<svg width="150" height="38" viewBox="0 0 234 38" fill="none" xmlns="http://www.w3.org/2000/svg">
<path d="M40.1258 25.3853C37.163 25.3853 34.7828 24.5656 32.9854 22.9262C31.2077 21.2868 30.3188 19.114 30.3188 16.408C30.3188 13.7217 31.2077 11.5588 32.9854 9.91935C34.7828 8.27992 37.163 7.4602 40.1258 7.4602C43.0491 7.4602 45.3997 8.27992 47.1774 9.91935C48.9748 11.5588 49.8735 13.7217 49.8735 16.408C49.8735 19.0943 48.9748 21.267 47.1774 22.9262C45.3997 24.5656 43.0491 25.3853 40.1258 25.3853ZM40.2147 24.852C42.4072 24.852 44.0861 24.1805 45.2515 22.8373C46.4169 21.4942 46.9996 19.5387 46.9996 16.9709C46.9996 14.0476 46.3971 11.8254 45.1923 10.3045C43.9874 8.76385 42.2393 7.99351 39.948 7.99351C37.7358 7.99351 36.047 8.66509 34.8816 10.0082C33.7162 11.3514 33.1335 13.3069 33.1335 15.8746C33.1335 18.798 33.736 21.03 34.9409 22.5707C36.1655 24.0916 37.9234 24.852 40.2147 24.852ZM1.07568 29L1.04605 28.7333H2.17192C2.96201 28.7333 3.44594 28.6543 3.62371 28.4963C3.82123 28.3185 3.92 27.8741 3.92 27.163V10.2749C3.92 9.99836 3.81136 9.77121 3.59408 9.59344C3.39656 9.41567 3.13978 9.32679 2.82375 9.32679H2.73486L0.80902 9.47493L0.779392 9.29716L3.2978 8.8231C3.98913 8.70459 4.54219 8.45769 4.95699 8.0824C5.37178 7.7071 5.57918 7.23305 5.57918 6.66024V6.54172H5.81621V10.423C5.81621 11.8452 5.79646 12.7538 5.75695 13.1488H6.05324C6.17175 12.3588 6.34952 11.6773 6.58655 11.1045C7.61366 8.67496 9.3321 7.4602 11.7419 7.4602C13.3221 7.4602 14.4381 7.80586 15.0899 8.49719C15.7417 9.18852 16.0676 10.1465 16.0676 11.3711V13.1488H16.1861C16.2059 12.7143 16.3145 12.1909 16.512 11.5785C16.7293 10.9662 16.8972 10.5712 17.0157 10.3934C18.1416 8.43794 19.7514 7.4602 21.8451 7.4602C23.287 7.4602 24.4524 7.80586 25.3413 8.49719C26.2301 9.18852 26.6746 10.1564 26.6746 11.4008V20.1708C26.6746 23.1928 27.7906 25.6322 30.0226 27.489C32.2743 29.3259 35.2371 30.2444 38.9111 30.2444C41.0048 30.2444 42.9306 29.8889 44.6886 29.1778C46.4663 28.4667 47.7008 27.4593 48.3921 26.1557L48.6588 26.2742C47.9082 27.6568 46.5947 28.7235 44.7182 29.4741C42.8418 30.2444 40.7381 30.6296 38.4074 30.6296C34.1211 30.6296 30.6744 29.5629 28.0671 27.4297C25.4598 25.2965 24.1561 22.4818 24.1561 18.9856V11.6674C24.1561 10.502 23.9092 9.59344 23.4154 8.94162C22.9414 8.28979 22.3192 7.96388 21.5489 7.96388C20.0477 7.96388 18.8428 8.59595 17.9342 9.8601C17.0256 11.1045 16.5713 12.7538 16.5713 14.808V27.163C16.5713 27.8741 16.6701 28.3185 16.8676 28.4963C17.0651 28.6543 17.5589 28.7333 18.349 28.7333H19.1786V29H12.1567V28.7333H14.3492V28.6741C14.1516 28.4963 14.0529 28.2395 14.0529 27.9038V11.6674C14.0529 10.502 13.806 9.59344 13.3122 8.94162C12.8381 8.28979 12.2159 7.96388 11.4456 7.96388C9.94442 7.96388 8.73954 8.59595 7.83094 9.8601C6.92233 11.1045 6.46803 12.7538 6.46803 14.808V27.163C6.46803 27.8741 6.56679 28.3185 6.76432 28.4963C6.96184 28.6543 7.45564 28.7333 8.24573 28.7333H9.37161V29H1.07568ZM69.8599 28.4667L69.8303 28.7333C68.3094 28.7926 66.8378 28.9704 65.4157 29.2667V29.0296C65.5144 28.042 65.5638 27.4791 65.5638 27.3408V26.8668C65.5638 26.61 65.5539 25.9977 65.5342 25.0298C65.5144 24.0619 65.5046 23.4891 65.5046 23.3114V23.1928H65.2675C64.9515 25.2273 64.2009 26.7482 63.0158 27.7556C61.8307 28.7432 60.4184 29.237 58.7789 29.237C57.1395 29.237 55.8062 28.8519 54.7791 28.0815C53.7717 27.2914 53.2681 26.1853 53.2681 24.7631V9.71196C53.2681 9.11939 52.952 8.8231 52.32 8.8231H50.7793V8.55645H52.6459C53.4557 8.55645 54.1569 8.43794 54.7495 8.20091C55.342 7.94413 55.6383 7.53921 55.6383 6.98615V6.86763H55.905V24.4965C55.905 25.8396 56.1914 26.8766 56.7642 27.6075C57.3568 28.3383 58.137 28.7037 59.1048 28.7037C60.843 28.7037 62.2454 28.0124 63.3121 26.6297C64.3984 25.2273 64.9416 23.4002 64.9416 21.1485V9.53419C64.9416 8.82311 64.8429 8.38856 64.6453 8.23054C64.4478 8.05277 63.954 7.96388 63.1639 7.96388H62.6306V7.69723L67.6674 7.57871V7.81574C67.5884 8.60583 67.5489 9.12926 67.5489 9.38604V26.8964C67.5489 27.6075 67.6378 28.0519 67.8156 28.2297C68.0131 28.3877 68.5069 28.4667 69.297 28.4667H69.8599ZM70.8353 29L70.8057 28.7333H71.9316C72.7217 28.7333 73.2056 28.6543 73.3834 28.4963C73.5809 28.3185 73.6797 27.8741 73.6797 27.163V10.2749C73.6797 9.99836 73.571 9.77121 73.3538 9.59344C73.1562 9.41567 72.8995 9.32679 72.5834 9.32679H72.4945L70.5687 9.47493L70.5391 9.29716L73.0575 8.8231C73.7686 8.70459 74.3414 8.45769 74.7759 8.0824C75.2302 7.7071 75.4574 7.23305 75.4574 6.66024V6.54172H75.724V10.423C75.724 12.1415 75.7043 13.1785 75.6648 13.534H75.8722C75.9907 12.8229 76.1684 12.181 76.4055 11.6082C76.8795 10.344 77.6499 9.33666 78.7165 8.58608C79.8029 7.83549 81.0176 7.4602 82.3608 7.4602C84.099 7.4602 85.4421 7.86512 86.3902 8.67496C87.3581 9.4848 87.842 10.5712 87.842 11.9341V27.163C87.842 27.8741 87.9309 28.3185 88.1087 28.4963C88.2864 28.6543 88.7704 28.7333 89.5605 28.7333H90.7456V29H82.42V28.7333H85.5903V28.6741C85.3927 28.4963 85.294 28.2395 85.294 27.9038V12.4378C85.294 9.45518 84.2274 7.96388 82.0941 7.96388C80.4152 7.96388 79.0128 8.63546 77.8869 9.97861C76.7808 11.3218 76.2277 13.06 76.2277 15.1932V27.163C76.2277 27.8741 76.3265 28.3185 76.524 28.4963C76.7215 28.6543 77.2153 28.7333 78.0054 28.7333H79.1313V29H70.8353ZM93.5256 29V28.7333H96.0143C96.8044 28.7333 97.2884 28.6543 97.4661 28.4963C97.6439 28.3185 97.7328 27.8741 97.7328 27.163V8.23054H95.7773C94.1576 8.23054 93.0416 8.45769 92.4293 8.91199C91.817 9.34654 91.4713 10.2551 91.3923 11.6378L91.2738 12.8526L90.6812 12.8229L91.1849 5.94916L91.5405 5.97879L91.3923 7.69723H106.562L106.414 6.00841L106.769 5.97879L107.243 12.8229L106.651 12.8526L106.562 11.6378C106.444 10.2551 106.078 9.34654 105.466 8.91199C104.873 8.45769 103.777 8.23054 102.177 8.23054H100.281V27.163C100.281 27.8741 100.37 28.3185 100.547 28.4963C100.725 28.6543 101.209 28.7333 101.999 28.7333H104.429V29H93.5256ZM119.74 29V28.7333H122.228C123.019 28.7333 123.502 28.6543 123.68 28.4963C123.858 28.3185 123.947 27.8741 123.947 27.163V8.23054H121.991C120.372 8.23054 119.256 8.45769 118.643 8.91199C118.031 9.34654 117.685 10.2551 117.606 11.6378L117.488 12.8526L116.895 12.8229L117.399 5.94916L117.755 5.97879L117.606 7.69723H132.776L132.628 6.00841L132.984 5.97879L133.458 12.8229L132.865 12.8526L132.776 11.6378C132.658 10.2551 132.292 9.34654 131.68 8.91199C131.087 8.45769 129.991 8.23054 128.391 8.23054H126.495V27.163C126.495 27.8741 126.584 28.3185 126.762 28.4963C126.939 28.6543 127.423 28.7333 128.213 28.7333H130.643V29H119.74ZM165.272 14.9562V11.8748C165.272 10.6107 164.956 9.64282 164.324 8.97125C163.692 8.29967 162.784 7.96388 161.599 7.96388C160.018 7.96388 158.764 8.34905 157.836 9.11939C156.927 9.86997 156.443 10.8378 156.384 12.023L156.295 13.8599H155.702L156.058 6.86763H156.384L156.295 8.43794C156.216 9.01075 156.167 9.32679 156.147 9.38604L156.384 9.4453C156.483 9.16877 156.651 8.94162 156.888 8.76385C158.211 7.89475 159.771 7.4602 161.569 7.4602C163.623 7.4602 165.184 7.875 166.25 8.70459C167.337 9.51443 167.88 10.6996 167.88 12.26V23.0447C167.88 23.6768 167.939 24.0916 168.057 24.2891C168.176 24.4669 168.472 24.5558 168.946 24.5558C169.006 24.5558 169.104 24.5558 169.243 24.5558C169.401 24.536 169.519 24.5261 169.598 24.5261L170.161 24.4965L170.191 24.7631C168.848 24.8817 167.643 25.0989 166.576 25.415V25.1779C166.576 24.7039 166.467 23.8941 166.25 22.7484C166.053 21.6028 165.954 20.8818 165.954 20.5856H165.628C164.739 23.7854 162.912 25.3853 160.147 25.3853C158.31 25.3853 156.818 24.9705 155.673 24.141C154.547 23.2916 153.984 22.1855 153.984 20.8226C153.984 19.0646 154.784 17.6523 156.384 16.5857C157.984 15.4994 160.097 14.9562 162.724 14.9562H165.272ZM165.272 15.4895H162.902C161.085 15.4895 159.613 15.9833 158.488 16.9709C157.381 17.9388 156.828 19.2226 156.828 20.8226C156.828 21.9485 157.174 22.8571 157.865 23.5484C158.557 24.2397 159.455 24.5854 160.562 24.5854C161.826 24.5854 162.922 24.0619 163.85 23.0151C164.798 21.9485 165.272 20.4275 165.272 18.4523V15.4895ZM134.548 29L134.577 28.7037H135.703C136.493 28.7037 136.977 28.6247 137.155 28.4667C137.353 28.2889 137.451 27.8445 137.451 27.1334V9.50456C137.451 8.79348 137.353 8.35893 137.155 8.20091C136.977 8.02314 136.493 7.93426 135.703 7.93426H134.577V7.6676H143.081C145.688 7.6676 147.782 8.27004 149.362 9.47493C150.962 10.6798 151.762 12.2699 151.762 14.2451C151.762 16.0228 151.1 17.4943 149.777 18.6597C148.473 19.8251 146.824 20.4868 144.829 20.6448L144.177 20.6744V20.8522C145.125 20.951 146.251 21.583 147.555 22.7484C149.53 24.5261 151.041 25.7705 152.088 26.4816C154.991 28.4568 157.994 29.4444 161.095 29.4444C163.702 29.4444 166.428 29.0395 169.272 28.2297L170.191 27.963L170.25 28.2297L169.361 28.4963C164.976 29.7605 161.51 30.3925 158.962 30.3925C156.572 30.3925 154.34 29.8987 152.266 28.9111C150.192 27.9235 147.999 26.2841 145.688 23.9928C145.51 23.815 145.273 23.578 144.977 23.2817C144.681 22.9854 144.454 22.7583 144.296 22.6003C144.138 22.4423 143.94 22.2546 143.703 22.0373C143.486 21.8201 143.298 21.6522 143.14 21.5337C142.982 21.4151 142.814 21.2966 142.636 21.1781C142.459 21.0596 142.291 20.9806 142.133 20.9411C141.975 20.8818 141.827 20.8522 141.688 20.8522H141.303V20.3485H142.785C144.602 20.3485 146.073 19.7955 147.199 18.6893C148.325 17.5635 148.888 16.0919 148.888 14.2747C148.888 12.4773 148.325 11.0255 147.199 9.91935C146.073 8.79348 144.602 8.23054 142.785 8.23054H139.407V8.26017C139.762 8.59595 139.94 9.10951 139.94 9.80084V27.163C139.94 27.8741 140.039 28.3185 140.236 28.4963C140.434 28.6543 140.928 28.7333 141.718 28.7333H143.614V29H134.548ZM169.291 7.69723H175.75V7.96388H173.231V8.02314C173.567 8.14165 173.903 8.59595 174.238 9.38604L181.734 25.889C181.912 26.4223 182.001 26.7779 182.001 26.9556H182.416C182.416 26.6199 182.525 26.2248 182.742 25.7705L190.06 9.80084C190.179 9.50456 190.238 9.2379 190.238 9.00088C190.238 8.30955 189.714 7.96388 188.667 7.96388H185.882V7.69723H192.993V7.96388H192.578C191.946 7.96388 191.502 8.20091 191.245 8.67496C191.146 8.81323 190.969 9.18852 190.712 9.80084L182.09 29.1481L180.342 29.2667L171.69 9.80084C171.295 8.91199 170.989 8.38856 170.772 8.23054C170.555 8.05277 170.219 7.96388 169.765 7.96388H169.291V7.69723ZM214.658 17.445H196.169V17.8005C196.169 21.2966 196.989 23.9928 198.629 25.889C200.268 27.7655 202.5 28.7037 205.325 28.7037C207.497 28.7037 209.413 28.3087 211.072 27.5186C212.732 26.7087 214.045 25.573 215.013 24.1113L215.457 24.4372C214.45 25.9582 213.058 27.1433 211.28 27.9926C209.502 28.8222 207.468 29.237 205.176 29.237C201.72 29.237 198.856 28.2297 196.584 26.2149C194.332 24.1805 193.207 21.5337 193.207 18.2745C193.207 15.0352 194.313 12.4279 196.525 10.4527C198.737 8.45769 201.641 7.4602 205.236 7.4602C208.139 7.4602 210.598 8.29967 212.613 9.97861C214.648 11.6575 215.665 13.8105 215.665 16.4376V16.5857C215.665 16.8228 215.566 17.0302 215.369 17.2079C215.171 17.3659 214.934 17.445 214.658 17.445ZM196.199 16.9116L212.613 16.7042C212.771 16.7042 212.85 16.6154 212.85 16.4376C212.85 13.9093 212.149 11.8748 210.747 10.3341C209.344 8.77372 207.497 7.99351 205.206 7.99351C202.421 7.99351 200.258 8.75397 198.717 10.2749C197.197 11.7958 196.357 14.0081 196.199 16.9116ZM217.328 29V28.7333H218.454C219.224 28.7333 219.708 28.6247 219.905 28.4074C220.103 28.1704 220.202 27.6865 220.202 26.9556V9.50456C220.202 8.79348 220.103 8.35893 219.905 8.20091C219.728 8.04289 219.244 7.96388 218.454 7.96388H217.328V7.69723H225.624V7.96388H224.498C223.708 7.96388 223.214 8.04289 223.016 8.20091C222.819 8.35893 222.72 8.79348 222.72 9.50456V26.8964C222.72 27.489 222.483 28.0025 222.009 28.4371V28.4667H226.424C228.142 28.4667 229.456 28.2297 230.364 27.7556C231.273 27.2816 231.786 26.3828 231.905 25.0594L232.142 22.0966H232.794L232.142 30.511L231.816 30.4814L231.964 28.7333H231.935C231.737 28.9111 231.441 29 231.046 29H217.328Z" fill="white"/>
</svg>
