<svg width="37" height="41" viewBox="0 0 37 41" fill="none" xmlns="http://www.w3.org/2000/svg">
<path d="M17.8967 0.714751C16.7022 0.721544 15.5044 0.792872 14.2962 0.938925C11.986 1.22084 9.69638 1.68957 7.49913 2.69156C4.00476 4.28456 1.52687 6.98824 0.808139 10.9181C0.503537 12.5756 0.257117 14.2569 0.116795 15.9484C-0.153583 19.2329 0.0141191 22.5276 0.951885 25.7645C1.69115 28.3154 3.0533 30.6081 5.43878 32.0958C6.44842 32.7241 7.77978 33.0298 8.47454 33.3491C8.66963 33.4408 8.71754 33.4952 8.72781 33.5087C8.73808 33.5189 8.76546 33.5427 8.76203 33.7465C8.73808 35.8252 8.76203 39.8468 8.76203 39.8468L8.76546 40.7129H10.3295L10.5828 40.4683C10.5828 40.4683 14.5563 36.6744 15.9938 35.1119C16.2539 34.8334 16.3874 34.6772 16.4147 34.6602C16.4387 34.6432 16.3976 34.633 16.6646 34.6262C18.5504 34.5889 20.4328 34.5175 22.3151 34.4156C24.7965 34.2798 27.3257 34.0454 29.7591 33.0366C31.8776 32.1569 33.647 30.7201 34.7183 28.5667C35.8135 26.3589 36.3987 24.0187 36.6178 21.5969C36.9806 17.5652 36.8539 13.5267 35.7313 9.54586C35.0708 7.21241 33.7429 5.239 31.7065 3.8464C29.2697 2.18207 26.5214 1.5571 23.8313 1.1597C22.2604 0.928736 20.6792 0.77589 19.0911 0.728337C18.6941 0.718147 18.2971 0.711354 17.8967 0.714751ZM19.0432 2.46739C20.5526 2.50815 22.0619 2.6542 23.5746 2.87837C26.1689 3.26219 28.616 3.8464 30.714 5.27976C32.4149 6.44139 33.4759 8.01061 34.044 10.0112C35.0913 13.7338 35.2248 17.5482 34.8723 21.4441C34.6704 23.6892 34.133 25.8053 33.1439 27.7991C32.2712 29.5585 30.909 30.676 29.0814 31.4334C26.9595 32.3131 24.6527 32.5475 22.2227 32.68C20.3609 32.7819 18.4956 32.8498 16.6304 32.8872C16.1615 32.8974 15.7029 33.0196 15.3777 33.2574C15.0526 33.4952 14.9054 33.7159 14.7035 33.9333C13.6767 35.0474 11.6301 37.0072 10.5144 38.0805C10.5075 36.783 10.4972 35.2138 10.5144 33.7669C10.5212 33.3219 10.4185 32.8668 10.1618 32.5068C9.90515 32.1467 9.55263 31.9293 9.2138 31.7731C8.2247 31.3179 6.93099 30.9715 6.3697 30.6216C4.40861 29.3989 3.2963 27.5647 2.63576 25.2822C1.76986 22.2966 1.60558 19.2227 1.86227 16.0945C1.99917 14.4709 2.23532 12.8439 2.53308 11.2306C3.15598 7.83059 5.11365 5.69074 8.22812 4.27097C10.1961 3.37427 12.2975 2.93272 14.5118 2.66439C16.0212 2.48097 17.5305 2.42323 19.0432 2.46739ZM19.4129 6.80142C18.6907 6.80142 17.9891 6.88294 17.308 7.03239C16.8391 7.14108 16.5414 7.60641 16.6475 8.07514C16.7536 8.54387 17.2259 8.83598 17.6982 8.73068C18.2492 8.60501 18.8242 8.54047 19.4129 8.54047C23.691 8.54047 27.1409 11.9642 27.1409 16.2066C27.1409 16.7942 27.0758 17.3648 26.9492 17.915C26.8431 18.3804 27.1374 18.8491 27.6097 18.9544C28.0821 19.0597 28.5509 18.7642 28.657 18.2955C28.811 17.6229 28.8932 16.9266 28.8932 16.2066C28.8932 11.0234 24.639 6.80142 19.4129 6.80142ZM10.6718 8.54387C10.528 8.53708 10.3809 8.54727 10.2269 8.58123C8.6354 8.93108 7.0542 10.0757 7.00971 12.1205C7.0542 12.4058 7.05078 12.7115 7.15688 12.9696C7.6771 14.2331 8.12887 15.5374 8.77915 16.733C11.945 22.5412 16.733 26.5797 22.8354 29.1441C23.5644 29.4498 24.3173 29.5144 25.0531 29.2087C26.0662 28.7909 26.9252 28.1455 27.4968 27.2183C28.2806 25.9446 28.2908 25.0614 27.0005 24.1206C26.1552 23.5024 25.3235 22.8673 24.4679 22.2627C23.1639 21.3456 21.7538 21.1859 20.7819 22.7959C20.7305 22.8774 20.6552 22.9454 20.5902 23.0133C20.0905 23.5398 19.4779 23.6688 18.8276 23.4039C16.36 22.3951 14.4537 20.7682 13.3037 18.3464C12.626 16.9232 12.8109 16.21 14.0772 15.2623C14.2038 15.1706 14.3236 15.0721 14.44 14.9668C14.9944 14.4641 15.1416 13.8663 14.813 13.1904C14.0703 11.6483 13.0812 10.2727 11.8286 9.08732C11.4898 8.76805 11.103 8.56765 10.6718 8.54387ZM19.3992 9.41C19.0124 9.41 18.6291 9.44057 18.2526 9.5051C17.9343 9.54586 17.664 9.75645 17.5476 10.052C17.4312 10.3509 17.4894 10.6871 17.6948 10.9317C17.9035 11.1728 18.2321 11.2849 18.547 11.217C18.8208 11.1728 19.1083 11.149 19.3992 11.149C22.2467 11.149 24.5329 13.418 24.5329 16.2439C24.5329 16.5326 24.509 16.8179 24.4645 17.0897C24.396 17.4022 24.509 17.7282 24.752 17.9354C24.9984 18.1392 25.3372 18.197 25.6384 18.0815C25.9361 17.966 26.1483 17.6977 26.1894 17.3818C26.2544 17.0082 26.2852 16.6277 26.2852 16.2439C26.2852 12.4805 23.1913 9.41 19.3992 9.41ZM19.276 12.0186C18.9611 12.0152 18.6668 12.1782 18.5059 12.4499C18.3485 12.7217 18.3485 13.0545 18.5059 13.3263C18.6668 13.598 18.9611 13.761 19.276 13.7576C20.7374 13.7576 21.9044 14.9159 21.9044 16.3662C21.901 16.6787 22.0653 16.9708 22.3391 17.1304C22.6129 17.2867 22.9483 17.2867 23.2221 17.1304C23.4959 16.9708 23.6602 16.6787 23.6568 16.3662C23.6568 13.975 21.6854 12.0186 19.276 12.0186Z" fill="white"/>
</svg>
