<svg width="48" height="44" viewBox="0 0 48 44" fill="none" xmlns="http://www.w3.org/2000/svg">
<path d="M45.168 0.00323713C44.6363 0.0267484 44.1188 0.175901 43.6521 0.36428C43.1901 0.551399 40.5306 1.69555 36.6032 3.38802C32.6758 5.08049 27.5705 7.28444 22.5098 9.46987C12.3882 13.8407 2.44208 18.1414 2.44208 18.1414L2.51458 18.1134C2.51458 18.1134 1.91428 18.3157 1.30565 18.7431C1.00134 18.9568 0.673953 19.2327 0.405891 19.635C0.137829 20.0372 -0.0581426 20.6073 0.0157096 21.2102C0.275112 23.3281 2.45274 23.9288 2.45274 23.9288L2.46127 23.9331L12.1796 27.2856C12.4273 28.1188 15.1272 37.2014 15.721 39.1248C16.049 40.1883 16.356 40.8017 16.6762 41.2202C16.8365 41.4296 17.0044 41.5917 17.1901 41.7102C17.2639 41.7573 17.3415 41.7926 17.4182 41.8241C17.4199 41.8248 17.4209 41.8233 17.4225 41.8241C17.4319 41.8283 17.4408 41.8286 17.4502 41.8327L17.4246 41.8262C17.4425 41.8335 17.4601 41.8457 17.4779 41.852C17.5126 41.8642 17.5338 41.8638 17.5781 41.8735C18.6911 42.2652 19.6122 41.5382 19.6122 41.5382L19.6506 41.5082L25.6206 35.927L35.309 43.5412L35.4305 43.597C37.1264 44.356 38.66 43.9326 39.5093 43.236C40.3586 42.5394 40.6927 41.6414 40.6927 41.6414L40.7289 41.5468L47.8481 4.14664C48.0303 3.30991 48.0562 2.58665 47.8844 1.9331C47.7126 1.27954 47.2952 0.711413 46.7714 0.396516C46.2476 0.0816194 45.6997 -0.0202741 45.168 0.00323713ZM45.2256 2.24042C45.4415 2.23034 45.6016 2.25522 45.652 2.28555C45.7025 2.31588 45.7251 2.31188 45.7735 2.49615C45.822 2.68043 45.8482 3.06855 45.716 3.67599L45.7117 3.68889L38.633 40.872C38.6163 40.9095 38.4687 41.2534 38.132 41.5296C37.7884 41.8114 37.4063 42.0314 36.3921 41.6027L25.7975 33.2751L25.499 33.0387L25.4926 33.0451L22.3243 30.6489L40.1298 9.53435C40.2666 9.37252 40.354 9.17422 40.3813 8.9634C40.4087 8.75259 40.3749 8.5383 40.284 8.34643C40.1931 8.15457 40.049 7.99336 39.8692 7.88228C39.6893 7.77121 39.4814 7.71503 39.2705 7.72053C39.0645 7.72593 38.8641 7.79001 38.6927 7.90535L12.9279 25.2182L3.19473 21.8592C3.19473 21.8592 2.22822 21.3171 2.18196 20.9394C2.1794 20.9185 2.16799 20.9375 2.21821 20.8621C2.26843 20.7867 2.39468 20.6595 2.55296 20.5483C2.86951 20.326 3.23098 20.1916 3.23098 20.1916L3.26722 20.1787L3.30347 20.1636C3.30347 20.1636 13.2501 15.8628 23.3712 11.4921C28.4317 9.30683 33.5361 7.10449 37.4625 5.41244C41.3879 3.72082 44.2242 2.50321 44.4644 2.40589C44.7378 2.29553 45.0097 2.25049 45.2256 2.24042ZM33.4178 14.0947L19.915 30.1074L19.9086 30.1138C19.8875 30.1394 19.8676 30.1659 19.8489 30.1933C19.8274 30.2231 19.8075 30.2539 19.7892 30.2857C19.7133 30.4155 19.6647 30.5596 19.6463 30.7091C19.6463 30.712 19.6463 30.7148 19.6463 30.7177L17.8873 38.6907C17.8581 38.6046 17.8376 38.5731 17.8063 38.4715V38.4694C17.2476 36.6599 14.7004 28.0942 14.3479 26.9095L33.4178 14.0947ZM21.4394 32.7314L23.8658 34.5667L20.3009 37.8977L21.4394 32.7314Z" fill="white"/>
</svg>
